<svg width="180" height="48" viewBox="0 0 180 48" fill="none" xmlns="http://www.w3.org/2000/svg">
<path d="M65.4846 35.9558H69.5722L68.8951 32.788V13.9023H64.985V22.5162C63.8088 21.1547 62.1911 20.3559 60.2809 20.3559C56.3701 20.3559 53.3425 23.5818 53.3425 28.3187C53.3425 33.0549 56.3701 36.2814 60.2809 36.2814C62.2214 36.2814 63.8966 35.4524 65.0734 34.0309L65.4846 35.9552V35.9558ZM142.779 24.5893C143.573 24.5893 144.307 24.7957 144.983 25.2688L146.836 21.096C145.983 20.5623 144.983 20.3263 144.014 20.3263C142.249 20.3263 140.779 21.1232 139.839 22.6057L139.427 20.6796H135.399L136.046 23.6695V35.9534H139.954V26.2158C140.483 25.2089 141.483 24.5881 142.777 24.5881V24.5893H142.779ZM154.244 32.1666C151.982 32.1666 150.305 30.6574 150.305 28.318C150.305 25.9502 151.982 24.4707 154.244 24.4707C156.538 24.4707 158.185 25.9502 158.185 28.318C158.185 30.6574 156.538 32.1666 154.244 32.1666H154.244ZM57.1345 28.318C57.1345 25.9502 58.8103 24.4707 61.0736 24.4707C63.3679 24.4707 65.014 25.9502 65.014 28.318C65.014 30.6574 63.3679 32.1666 61.0749 32.1666C58.8116 32.1666 57.1345 30.6574 57.1345 28.318ZM171.562 32.1666C169.298 32.1666 167.623 30.6574 167.623 28.318C167.623 25.9502 169.298 24.4707 171.562 24.4707C173.855 24.4707 175.501 25.9502 175.501 28.318C175.501 30.6574 173.855 32.1666 171.562 32.1666ZM79.0676 24.2335C81.0959 24.2335 82.4193 25.1805 82.8305 26.9269H75.3047C75.7456 25.1805 77.0683 24.2335 79.067 24.2335H79.0676ZM125.843 24.2335C127.872 24.2335 129.196 25.1805 129.607 26.9269H122.081C122.522 25.1805 123.845 24.2335 125.843 24.2335H125.843ZM106.764 35.9558H113.055L117.143 20.6815H112.879L109.881 33.0549L106.882 20.6815H102.677L106.765 35.9552L106.764 35.9558ZM96.6788 35.9558H100.587V20.6809H96.6788V35.9558ZM79.6668 36.2388C81.8436 36.2388 83.9894 35.6457 85.7827 34.4918L84.2837 31.1177C82.872 31.8577 81.3142 32.3019 79.7262 32.3019C77.6688 32.3019 76.228 31.5025 75.6102 30.0224H86.6052C86.7227 29.4602 86.7827 28.8981 86.7827 28.2167C86.7827 23.4805 83.5194 20.3133 79.1381 20.3133C74.729 20.3133 71.4948 23.5101 71.4948 28.276C71.4948 33.1303 74.6993 36.2388 79.6681 36.2388H79.6668ZM179.294 28.318C179.294 23.5818 176.001 20.3553 171.562 20.3553C167.122 20.3553 163.829 23.5818 163.829 28.318C163.829 33.0549 167.122 36.2808 171.561 36.2808C176.001 36.2808 179.294 33.0549 179.294 28.318H179.294ZM126.373 36.2808C128.548 36.2808 130.694 35.689 132.489 34.5344L130.988 31.1584C129.577 31.8985 128.019 32.342 126.431 32.342C124.373 32.342 122.933 31.5439 122.315 30.0625H133.311C133.429 29.5004 133.487 28.9382 133.487 28.2575C133.487 23.5212 130.223 20.3541 125.842 20.3541C121.433 20.3541 118.199 23.5503 118.199 28.3168C118.199 33.171 121.404 36.2795 126.373 36.2795V36.2808H126.373ZM154.244 36.2808C158.684 36.2808 161.976 33.0549 161.976 28.318C161.976 23.5818 158.684 20.3553 154.244 20.3553C149.804 20.3553 146.511 23.5818 146.511 28.318C146.511 33.0549 149.804 36.2808 154.243 36.2808H154.244ZM89.2698 35.9552H93.1793V13.9017H89.2692V35.9552H89.2698ZM98.6478 18.5781C100.029 18.5781 101.088 17.5118 101.088 16.091C101.088 14.6702 100.03 13.6046 98.6484 13.6046C97.2372 13.6046 96.1785 14.6702 96.1785 16.091C96.1785 17.5118 97.2378 18.5774 98.649 18.5774L98.6478 18.5781ZM31.4731 0.000617745L29.2345 21.1658L25.4159 3.32161L13.4438 5.85066L17.2606 23.6936L0 27.3383L3.04867 41.5915L33.4018 48L40.3433 32.5119L43.6467 1.27255L31.4718 0L31.4731 0.00123549V0.000617745ZM21.8818 30.7044C21.256 31.2739 20.4286 31.2214 19.5505 30.9311C18.6742 30.642 18.2846 29.5887 18.6167 28.3156C18.864 27.3704 20.0285 27.2283 20.611 27.2184C20.8324 27.2147 21.0501 27.2592 21.251 27.3494C21.6629 27.5347 22.3604 27.9301 22.5021 28.533C22.7061 29.4028 22.5095 30.133 21.8837 30.7025H21.8824V30.7038L21.8818 30.7044ZM30.6692 31.6866C30.2146 32.4711 29.0211 32.5749 27.8468 32.0041C27.0553 31.6186 27.0615 30.6377 27.148 30.0397C27.194 29.7135 27.3264 29.4056 27.5314 29.1477C27.814 28.7918 28.2859 28.3279 28.8313 28.3137C29.7181 28.2902 30.4812 28.6856 30.9122 29.4009C31.3451 30.1138 31.1286 30.9002 30.6729 31.6866H30.6692Z" fill="#424BD0"/>
</svg>
