<svg width="90" height="28" viewBox="0 0 90 28" fill="none" xmlns="http://www.w3.org/2000/svg">
<rect x="30.8" width="28" height="28" rx="14" fill="#282943"/>
<path d="M28 1.4359C28 0.642873 27.3571 0 26.5641 0C11.8932 0 0 11.8932 0 26.5641C0 27.3571 0.642874 28 1.4359 28H25.2C26.7464 28 28 26.7464 28 25.2V1.4359Z" fill="#424BD0"/>
<path d="M62 1.4359C62 0.642873 62.6429 0 63.4359 0C78.1068 0 90 11.8932 90 26.5641C90 27.3571 89.3571 28 88.5641 28H64.8C63.2536 28 62 26.7464 62 25.2V1.4359Z" fill="#424BD0"/>
</svg>
