<svg width="143" height="26" fill="none" xmlns="http://www.w3.org/2000/svg" id="svg208301803_1975"><path d="M42.68 20.22c-4.12 0-6.86-2.96-6.86-7.44 0-4.46 2.82-7.48 6.96-7.48 3.26 0 5.76 1.94 6.3 4.9h-2.1c-.54-1.88-2.16-3.02-4.26-3.02-2.92 0-4.84 2.2-4.84 5.58s1.92 5.58 4.84 5.58c2.12 0 3.8-1.14 4.34-2.92h2.08c-.62 2.88-3.2 4.8-6.46 4.8Zm7.903-5.12c0-3.02 2.16-5.14 5.1-5.14 2.92 0 5.08 2.12 5.08 5.14 0 3.02-2.16 5.14-5.08 5.14-2.94 0-5.1-2.12-5.1-5.14Zm1.9 0c0 2.04 1.3 3.46 3.2 3.46 1.88 0 3.2-1.42 3.2-3.46s-1.32-3.46-3.2-3.46c-1.9 0-3.2 1.42-3.2 3.46ZM64.724 20h-1.88v-9.78h1.7l.2 1.5c.62-1.12 1.86-1.78 3.24-1.78 2.58 0 3.76 1.58 3.76 4.08V20h-1.88v-5.56c0-1.98-.92-2.78-2.36-2.78-1.76 0-2.78 1.26-2.78 3.16V20Zm8.707-2.84h1.8c0 1 .76 1.6 2 1.6 1.32 0 2.08-.54 2.08-1.44 0-.66-.32-1.06-1.34-1.32l-1.72-.4c-1.74-.42-2.56-1.28-2.56-2.72 0-1.8 1.52-2.94 3.68-2.94 2.14 0 3.54 1.2 3.58 3.06h-1.8c-.04-.98-.7-1.6-1.84-1.6-1.18 0-1.84.52-1.84 1.42 0 .66.48 1.1 1.44 1.34l1.72.42c1.66.4 2.48 1.16 2.48 2.62 0 1.86-1.6 3.04-3.92 3.04-2.3 0-3.76-1.22-3.76-3.08Zm16.525-6.94h1.86V20h-1.68l-.2-1.48c-.56 1.02-1.86 1.72-3.3 1.72-2.28 0-3.56-1.54-3.56-3.94v-6.08h1.88v5.46c0 2.1.9 2.9 2.34 2.9 1.72 0 2.66-1.1 2.66-3.2v-5.16ZM96.464 20h-1.88V5.28h1.88V20Zm5.527 0h-1.88v-8.2h-1.92v-1.58h1.92V7.16h1.88v3.06h1.92v1.58h-1.92V20Zm3.447 1.84v-1.48h8.2v1.48h-8.2ZM118.444 20h-1.92V5.54h1.92l4.98 12.16 4.98-12.16h1.96V20h-1.92v-5.72c0-2.7.02-3.68.12-4.7L124.344 20h-1.84l-4.2-10.38c.1.7.14 2.18.14 4.2V20Zm19.187.24c-2.88 0-4.86-2.08-4.86-5.12 0-3.06 1.94-5.18 4.78-5.18 2.78 0 4.6 1.92 4.6 4.82v.7l-7.56.02c.14 2.06 1.22 3.2 3.08 3.2 1.46 0 2.42-.6 2.74-1.72h1.76c-.48 2.1-2.12 3.28-4.54 3.28Zm-.08-8.72c-1.64 0-2.68.98-2.92 2.7h5.64c0-1.62-1.06-2.7-2.72-2.7Z" fill="#282943"></path><path d="M0 24.25c0 .575.466 1.04 1.04 1.04h13.249C20.204 25.29 25 20.495 25 14.58a.58.58 0 0 0-.579-.579h-14.17C4.589 14 0 18.59 0 24.25Z" fill="#424BD0"></path><rect x="14" y="1" width="11" height="11" rx="5.5" fill="#282943"></rect></svg>