<svg width="121" height="31" viewBox="0 0 121 31" fill="none" xmlns="http://www.w3.org/2000/svg">
<path d="M38.4801 23.9653L39.9825 20.4759C41.606 21.6875 43.7626 22.3175 45.895 22.3175C47.4701 22.3175 48.4636 21.7117 48.4636 20.7909C48.4394 18.2223 39.0374 20.2336 38.9647 13.7879C38.9405 10.5166 41.8483 7.99651 45.9677 7.99651C48.4151 7.99651 50.8625 8.6023 52.6072 9.98351L51.2018 13.5456C49.6025 12.5279 47.6155 11.8009 45.7254 11.8009C44.4411 11.8009 43.593 12.4067 43.593 13.1821C43.6172 15.7022 53.0919 14.321 53.1888 20.4759C53.1888 23.8199 50.3537 26.1704 46.2827 26.1704C43.3022 26.1704 40.564 25.4676 38.4801 23.9653ZM96.1275 19.2158C95.3764 20.5243 93.9709 21.4209 92.3474 21.4209C89.9484 21.4209 88.0099 19.4824 88.0099 17.0834C88.0099 14.6845 89.9484 12.7459 92.3474 12.7459C93.9709 12.7459 95.3764 13.6425 96.1275 14.951L100.271 12.649C98.7203 9.88659 95.7398 7.99651 92.3474 7.99651C87.3314 7.99651 83.2605 12.0674 83.2605 17.0834C83.2605 22.0994 87.3314 26.1704 92.3474 26.1704C95.7641 26.1704 98.7203 24.3045 100.271 21.5178L96.1275 19.2158ZM55.2727 0.460419H60.4583V25.8311H55.2727V0.460419ZM102.307 0.460419V25.8311H107.492V18.2223L113.647 25.8311H120.287L112.46 16.7926L119.705 8.35998H113.356L107.492 15.363V0.460419H102.307ZM75.8698 19.2643C75.1186 20.5001 73.5677 21.4209 71.823 21.4209C69.4241 21.4209 67.4856 19.4824 67.4856 17.0834C67.4856 14.6845 69.4241 12.7459 71.823 12.7459C73.5677 12.7459 75.1186 13.7152 75.8698 14.9753V19.2643ZM75.8698 8.35998V10.4197C75.0216 8.99001 72.9135 7.99651 70.7084 7.99651C66.1528 7.99651 62.5665 12.019 62.5665 17.0592C62.5665 22.0994 66.1528 26.1704 70.7084 26.1704C72.9135 26.1704 75.0216 25.1768 75.8698 23.7472V25.8069H81.0554V8.35998H75.8698Z" fill="#282943" fill-opacity="0.6"/>
<path d="M6.42136 19.2401C6.42136 21.009 4.99169 22.4387 3.22277 22.4387C1.45385 22.4387 0.0241699 21.009 0.0241699 19.2401C0.0241699 17.4712 1.45385 16.0415 3.22277 16.0415H6.42136V19.2401ZM8.02066 19.2401C8.02066 17.4712 9.45034 16.0415 11.2193 16.0415C12.9882 16.0415 14.4179 17.4712 14.4179 19.2401V27.2366C14.4179 29.0055 12.9882 30.4352 11.2193 30.4352C9.45034 30.4352 8.02066 29.0055 8.02066 27.2366V19.2401Z" fill="#282943" fill-opacity="0.6"/>
<path d="M11.2193 6.39719C9.4504 6.39719 8.02072 4.96752 8.02072 3.1986C8.02072 1.42968 9.4504 0 11.2193 0C12.9882 0 14.4179 1.42968 14.4179 3.1986V6.39719H11.2193ZM11.2193 8.02072C12.9882 8.02072 14.4179 9.4504 14.4179 11.2193C14.4179 12.9882 12.9882 14.4179 11.2193 14.4179H3.1986C1.42968 14.4179 0 12.9882 0 11.2193C0 9.4504 1.42968 8.02072 3.1986 8.02072H11.2193Z" fill="#282943" fill-opacity="0.6"/>
<path d="M24.038 11.2193C24.038 9.45043 25.4677 8.02075 27.2366 8.02075C29.0055 8.02075 30.4352 9.45043 30.4352 11.2193C30.4352 12.9883 29.0055 14.4179 27.2366 14.4179H24.038V11.2193ZM22.4387 11.2193C22.4387 12.9883 21.009 14.4179 19.2401 14.4179C17.4712 14.4179 16.0415 12.9883 16.0415 11.2193V3.19863C16.0415 1.42971 17.4712 3.05176e-05 19.2401 3.05176e-05C21.009 3.05176e-05 22.4387 1.42971 22.4387 3.19863V11.2193Z" fill="#282943" fill-opacity="0.6"/>
<path d="M19.2401 24.038C21.009 24.038 22.4387 25.4676 22.4387 27.2366C22.4387 29.0055 21.009 30.4352 19.2401 30.4352C17.4712 30.4352 16.0415 29.0055 16.0415 27.2366V24.038H19.2401ZM19.2401 22.4387C17.4712 22.4387 16.0415 21.009 16.0415 19.2401C16.0415 17.4712 17.4712 16.0415 19.2401 16.0415H27.2608C29.0297 16.0415 30.4594 17.4712 30.4594 19.2401C30.4594 21.009 29.0297 22.4387 27.2608 22.4387H19.2401Z" fill="#282943" fill-opacity="0.6"/>
</svg>
